# xmcd
#
# Track frame offsets:
#  150
#  15718
#  36027
#  55796
#  69625
#  86337
#  105459
#  123844
#  139080
#  164115
#
# Disc length: 2390 seconds
#
# Revision: 0
# Processed by: cddbd v1.5.1PL2 Copyright (c) Steve Scherf et al.
# Submitted via: Collectorz.com_Music_Collector 6.9
#
DISCID=7f09540a
DTITLE=Simply Red - If You Don't Know Me By Now And Other Hits
DYEAR=2006
DGENRE=
TTITLE0=If You Don't Know Me By Now
TTITLE1=Holding Back The Years
TTITLE2=The Right Thing
TTITLE3=Look At You Now
TTITLE4=No Direction
TTITLE5=I Won't Feel Bad
TTITLE6=Come To My Aid
TTITLE7=Shine
TTITLE8=Fairground
TTITLE9=To Be With You
EXTD=
EXTT0=
EXTT1=
EXTT2=
EXTT3=
EXTT4=
EXTT5=
EXTT6=
EXTT7=
EXTT8=
EXTT9=
PLAYORDER=
